<svg width="221" height="236" viewBox="0 0 221 236" fill="none" xmlns="http://www.w3.org/2000/svg">
<mask id="mask0_13_2287" style="mask-type:alpha" maskUnits="userSpaceOnUse" x="0" y="0" width="221" height="236">
<rect width="220.887" height="236" fill="#A56262"/>
</mask>
<g mask="url(#mask0_13_2287)">
<g clip-path="url(#clip0_13_2287)">
<path d="M151.248 111.156C150.624 110.504 149.889 109.959 149.079 109.566C149.94 108.886 150.777 108.092 151.498 107.158C153.459 104.639 154.171 101.524 153.417 98.839C152.701 96.2925 150.624 94.2913 148.154 93.4825C149.218 92.438 150.254 91.1948 151.022 89.7205C152.502 86.8967 152.654 83.7124 151.433 81.1982C150.111 78.4853 147.179 76.7753 144.205 76.7753C143.516 76.7753 142.827 76.8677 142.151 77.0572C141.772 77.1681 141.416 77.2929 141.069 77.4408V74.8157C144.242 72.0843 147.327 69.1912 150.254 66.201C152.451 63.9595 153.436 61.5978 153.191 59.1761C153.052 57.8589 152.728 56.1628 151.42 54.7671C150.513 53.7965 149.597 53.131 148.617 52.7289C146.429 51.8277 143.895 52.1697 141.069 53.7595V26.8292C141.074 20.322 135.797 15.0487 129.285 15.0487H86.0018C79.4901 15.0487 74.2086 20.3266 74.2086 26.8339V69.071C72.8073 67.5644 70.9851 66.6539 68.8716 66.4875C66.3788 66.2888 64.1312 67.0468 62.3552 68.6874C59.992 70.8873 58.6924 74.5107 58.7063 78.9059C58.6323 80.3432 57.6657 99.2411 57.6657 105.832C57.6657 113.938 58.0311 121.887 58.3502 128.898C58.7155 136.838 59.03 143.692 58.6554 147.759C58.2484 152.122 57.8553 153.74 55.9962 158.712C55.9962 158.712 55.0943 161.143 54.433 163.071C54.0121 164.295 54.7521 165.617 56.0193 165.899L96.107 174.856C97.1661 175.091 98.239 174.509 98.6136 173.488C98.6691 173.335 98.7061 173.234 98.7061 173.234C99.0761 171.967 99.7837 170.373 100.218 169.088C100.681 167.706 101.116 166.407 101.412 165.386C102.646 161.051 108.335 158.112 111.077 156.697C115.517 154.405 119.448 151.789 123.338 148.522H129.29C135.802 148.522 141.078 143.248 141.078 136.741V126.749C142.027 126.583 142.915 126.342 143.691 126.111C145.569 125.538 147.979 124.66 149.967 122.946C152.196 121.018 153.441 118.328 153.288 115.745C153.186 114.007 152.423 112.385 151.253 111.156H151.248ZM135.899 136.736C135.899 140.383 132.934 143.345 129.29 143.345H86.0018C82.3528 143.345 79.3884 140.383 79.3884 136.736V26.8292C79.3884 23.1874 82.3528 20.2249 86.0018 20.2249H93.2072C93.4385 22.6929 95.5243 24.6293 98.054 24.6293H117.228C119.758 24.6293 121.844 22.6929 122.08 20.2249H129.285C132.93 20.2249 135.894 23.1874 135.894 26.8292V81.8822C135.755 82.0671 135.617 82.2473 135.482 82.423C135.14 82.8759 134.812 83.3011 134.488 83.6847C132.31 86.2774 131.07 89.4016 130.992 92.4889C130.946 94.5686 131.528 96.2694 132.68 97.4109C133.424 98.1458 134.423 98.6634 135.584 98.9176C133.369 100.988 131.861 103.59 131.292 106.331C130.876 108.369 131.149 110.148 132.079 111.475C132.777 112.468 133.855 113.226 135.21 113.67C135.293 113.698 135.376 113.721 135.459 113.744C133.956 115.033 132.777 116.6 132.032 118.328C131.255 120.108 131.163 121.79 131.741 123.19C132.18 124.249 133.022 125.164 134.169 125.829C134.729 126.158 135.307 126.398 135.889 126.578V136.746L135.899 136.736Z" fill="white"/>
<path d="M78.991 110.878L74.7269 111.775C74.4633 110.523 74.4124 109.723 74.3199 108.267C74.2876 107.814 74.2552 107.274 74.2089 106.613C74.1673 105.993 74.1026 105.272 74.0286 104.413C73.9869 103.941 73.2331 85.196 72.9047 77.085C72.6411 74.2011 71.3508 71.0537 68.5204 70.8227C67.2579 70.721 66.1803 71.0815 65.3201 71.881C63.8633 73.2305 63.0447 75.8048 63.0586 78.9475V79.0677C63.0447 79.2664 62.018 99.2411 62.018 105.832C62.018 113.841 62.3787 121.735 62.6978 128.704C63.0678 136.801 63.3915 143.794 62.9846 148.157C62.5452 152.982 62.0226 155.006 60.1172 160.099C59.6963 161.231 59.2015 162.521 58.628 164.018C58.5124 164.323 58.3921 164.637 58.2673 164.965C57.8372 166.089 56.5838 166.652 55.46 166.227C54.3362 165.802 53.772 164.54 54.1975 163.417C54.3223 163.089 54.4426 162.775 54.5582 162.47C55.1132 161.019 55.5803 159.794 55.9872 158.717C57.8464 153.744 58.2441 152.122 58.6465 147.764C59.0211 143.697 58.7066 136.838 58.3413 128.903C58.0222 121.892 57.6568 113.943 57.6568 105.836C57.6568 99.2457 58.6234 80.3478 58.6974 78.9105C58.6835 74.5153 59.9831 70.8874 62.3463 68.6921C64.1176 67.0514 66.3699 66.2888 68.8627 66.4922C70.9808 66.6632 72.7984 67.5736 74.1997 69.0757C75.8739 70.8689 76.9561 73.5171 77.2382 76.7568L77.2474 76.8631C77.5388 84.1746 78.3158 103.317 78.362 104.066C78.5192 105.855 78.5979 107.089 78.658 107.985C78.7459 109.367 78.7782 109.936 78.9817 110.878H78.991Z" fill="#2B2B2B"/>
<path d="M124.471 147.556C124.092 147.888 123.713 148.212 123.329 148.526C119.439 151.794 115.508 154.41 111.068 156.702C108.331 158.116 102.637 161.056 101.403 165.391C101.107 166.412 100.672 167.715 100.209 169.093C99.7794 170.382 99.2845 171.842 98.9145 173.109C98.859 173.298 98.8035 173.479 98.7573 173.659C98.4659 174.694 97.4577 175.355 96.3894 175.221C95.076 175.055 94.2065 173.76 94.5626 172.485C94.632 172.24 94.706 171.986 94.7846 171.727C95.1592 170.465 95.6263 169.079 96.0842 167.711C96.5281 166.384 96.949 165.132 97.2172 164.198C98.97 158.051 105.792 154.534 109.071 152.838C111.596 151.535 113.945 150.121 116.211 148.526C118.038 147.237 119.823 145.836 121.604 144.279L124.471 147.556Z" fill="#2B2B2B"/>
<path d="M135.894 26.8292V136.736C135.894 140.388 132.93 143.35 129.286 143.35H86.0021C82.3532 143.35 79.3887 140.388 79.3887 136.736V26.8292C79.3887 23.1874 82.3532 20.2249 86.0021 20.2249H93.2076C93.4388 22.6929 95.5246 24.6293 98.0543 24.6293H117.229C119.758 24.6293 121.844 22.6929 122.08 20.2249H129.286C132.93 20.2249 135.894 23.1874 135.894 26.8292Z" fill="white"/>
<path d="M141.074 26.8292V136.736C141.074 143.235 135.788 148.526 129.286 148.526H86.0022C79.4997 148.526 74.209 143.235 74.209 136.736V26.8292C74.209 20.3312 79.4997 15.0487 86.0022 15.0487H129.286C135.788 15.0487 141.074 20.3312 141.074 26.8292ZM135.894 136.736V26.8292C135.894 23.1874 132.93 20.2249 129.286 20.2249H122.08C121.844 22.6929 119.759 24.6293 117.229 24.6293H98.0544C95.5247 24.6293 93.4389 22.6929 93.2076 20.2249H86.0022C82.3532 20.2249 79.3888 23.1874 79.3888 26.8292V136.736C79.3888 140.388 82.3532 143.35 86.0022 143.35H129.286C132.93 143.35 135.894 140.388 135.894 136.736Z" fill="#2B2B2B"/>
<path d="M120.1 105.896H95.1819C90.071 105.896 85.9277 110.037 85.9277 115.144V115.149C85.9277 120.256 90.071 124.397 95.1819 124.397H120.1C125.211 124.397 129.355 120.256 129.355 115.149V115.144C129.355 110.037 125.211 105.896 120.1 105.896Z" fill="#3884FD"/>
<path d="M98.0538 112.829C97.804 112.561 97.5034 112.357 97.1612 112.209C96.819 112.062 96.4397 111.988 96.0235 111.988C95.5888 111.988 95.1864 112.062 94.821 112.214C94.4557 112.367 94.1366 112.579 93.873 112.856C93.6047 113.134 93.3966 113.462 93.2532 113.836C93.1052 114.215 93.0312 114.627 93.0312 115.079C93.0312 115.662 93.1654 116.184 93.429 116.637C93.6972 117.09 94.0672 117.45 94.5482 117.714C95.0292 117.977 95.5934 118.107 96.2455 118.107C96.5137 118.107 96.782 118.074 97.0502 118.014C97.3184 117.954 97.5867 117.857 97.8457 117.732C98.1046 117.607 98.3498 117.446 98.5764 117.242L97.7439 116.068C97.5127 116.244 97.2999 116.374 97.1057 116.447C96.9115 116.521 96.6848 116.558 96.4351 116.558C96.0744 116.558 95.7599 116.494 95.4963 116.36C95.2327 116.226 95.0338 116.041 94.895 115.8C94.8303 115.69 94.7887 115.569 94.7517 115.44H98.7937L98.803 114.964C98.8169 114.534 98.7567 114.141 98.6273 113.776C98.4931 113.416 98.3035 113.101 98.0492 112.833L98.0538 112.829ZM97.1658 114.437H94.7517C94.7748 114.331 94.8025 114.229 94.8442 114.141C94.9459 113.924 95.1032 113.758 95.3067 113.642C95.5101 113.527 95.7553 113.471 96.0466 113.471C96.2547 113.471 96.4397 113.513 96.6016 113.591C96.7635 113.674 96.8976 113.785 96.9947 113.929C97.0918 114.072 97.1519 114.238 97.1658 114.423V114.432V114.437ZM104.579 112.256C104.274 112.075 103.904 111.983 103.46 111.983C103.136 111.983 102.822 112.048 102.526 112.182C102.23 112.316 101.976 112.491 101.767 112.709C101.726 112.75 101.698 112.801 101.661 112.843L101.629 112.103H99.9407V117.991H101.717V114.465C101.717 114.326 101.744 114.197 101.8 114.077C101.855 113.956 101.929 113.855 102.026 113.762C102.124 113.67 102.239 113.601 102.369 113.55C102.503 113.503 102.646 113.476 102.803 113.476C103.002 113.467 103.173 113.503 103.308 113.582C103.442 113.661 103.548 113.776 103.613 113.933C103.678 114.09 103.715 114.285 103.715 114.52V117.991H105.5V114.377C105.5 113.859 105.421 113.42 105.268 113.064C105.116 112.709 104.885 112.436 104.579 112.256ZM109.25 110.62H107.474V112.108H106.429V113.661H107.474V117.996H109.25V113.661H110.393V112.108H109.25V110.62ZM114.865 111.983C114.555 111.983 114.264 112.057 113.986 112.205C113.713 112.353 113.473 112.551 113.269 112.806C113.214 112.875 113.172 112.953 113.121 113.027L113.084 112.103H111.396V117.991H113.181V115.042C113.181 114.867 113.209 114.705 113.265 114.566C113.32 114.428 113.394 114.303 113.491 114.201C113.588 114.1 113.704 114.016 113.847 113.961C113.991 113.906 114.139 113.878 114.301 113.878C114.449 113.878 114.592 113.896 114.726 113.929C114.865 113.961 114.971 114.003 115.055 114.058L115.545 112.094C115.448 112.066 115.341 112.038 115.23 112.015C115.115 111.992 114.99 111.983 114.86 111.983H114.865ZM120.47 112.103L119.383 115.218C119.319 115.398 119.263 115.565 119.212 115.722C119.194 115.662 119.184 115.602 119.161 115.537C119.101 115.366 119.041 115.209 118.972 115.061L117.728 112.098H115.72L118.347 117.825L117.196 120.538H118.962L119.985 117.986L122.491 112.098H120.47V112.103Z" fill="white"/>
<path d="M150.258 66.2149C147.331 69.2051 144.246 72.0936 141.074 74.8296C140.389 75.4212 139.695 76.0081 139.006 76.5812L137.619 74.9082L136.231 73.2305C136.717 72.8284 137.193 72.4263 137.674 72.015C138.826 71.0352 139.959 70.0323 141.083 69.0063C143.164 67.1161 145.194 65.1611 147.155 63.1646C148.839 61.4407 148.94 60.3223 148.871 59.6244C148.769 58.6492 148.594 58.1039 148.251 57.7434C147.78 57.2396 147.363 56.9161 146.97 56.7544C145.661 56.2182 143.774 57.1611 142.415 58.0438C141.726 58.4921 141.379 58.737 141.083 58.9912C140.852 59.19 140.653 59.3979 140.348 59.7076C140.112 59.9572 139.825 60.2483 139.446 60.6273L137.915 59.079L136.384 57.5354C136.736 57.1888 137.004 56.9115 137.226 56.685C138.109 55.7699 138.493 55.4048 140.042 54.3973C140.394 54.1662 140.745 53.9583 141.087 53.7642C143.913 52.1743 146.448 51.8323 148.635 52.7335C149.616 53.1356 150.531 53.8011 151.438 54.7717C152.747 56.1674 153.07 57.8636 153.209 59.1807C153.459 61.6025 152.469 63.9641 150.272 66.2056L150.258 66.2149Z" fill="#2B2B2B"/>
<path d="M142.753 79.1554C145.315 78.4252 148.307 79.7609 149.472 82.1549C150.467 84.1976 150.143 86.7026 149.088 88.7176C148.034 90.7326 146.332 92.3317 144.552 93.746C142.221 95.5946 139.4 97.2723 136.449 96.8609C135.626 96.7454 134.803 96.4496 134.211 95.8673C133.36 95.0261 133.138 93.7367 133.165 92.5443C133.23 89.8176 134.396 87.174 136.153 85.085C137.91 82.996 139.487 80.089 142.748 79.1554H142.753Z" fill="white"/>
<path d="M151.433 81.2075C150.11 78.4945 147.178 76.7845 144.205 76.7845C143.515 76.7845 142.826 76.877 142.151 77.0665C141.772 77.1774 141.416 77.3022 141.069 77.4501C138.696 78.453 137.147 80.2646 135.889 81.8868C135.75 82.0717 135.612 82.2519 135.478 82.4276C135.135 82.8805 134.807 83.3057 134.483 83.6893C132.305 86.282 131.066 89.4062 130.987 92.4935C130.941 94.5732 131.523 96.274 132.675 97.4156C133.42 98.1504 134.419 98.668 135.579 98.9222C135.681 98.9453 135.783 98.9638 135.889 98.9777C135.972 98.9962 136.056 99.01 136.144 99.0193C136.56 99.0747 136.971 99.1024 137.374 99.1024C137.859 99.1024 138.326 99.0655 138.789 98.9915C139.584 98.876 140.348 98.6542 141.069 98.3769C142.979 97.6374 144.63 96.4635 145.902 95.4514C145.971 95.3959 146.041 95.3404 146.115 95.2804C146.757 94.7627 147.46 94.1712 148.15 93.4872C149.213 92.4427 150.249 91.1994 151.017 89.7251C152.497 86.9013 152.649 83.717 151.429 81.2028L151.433 81.2075ZM136.754 94.7073C136.398 94.6611 136.097 94.564 135.894 94.4392C135.838 94.4022 135.783 94.3653 135.746 94.3283C135.478 94.0649 135.33 93.4132 135.343 92.5998C135.367 91.6662 135.556 90.7188 135.894 89.7945C136.31 88.6391 136.967 87.516 137.822 86.49C138.211 86.0324 138.585 85.5426 138.942 85.0711C139.635 84.1653 140.301 83.2872 141.069 82.5847C141.73 81.9793 142.461 81.5032 143.344 81.2537C144.894 80.81 146.804 81.665 147.507 83.1116C148.117 84.3687 147.983 86.1341 147.155 87.7147C146.216 89.5172 144.542 90.973 143.192 92.0452C142.438 92.646 141.735 93.1405 141.064 93.5334C139.423 94.5132 138.021 94.8875 136.745 94.7073H136.754Z" fill="#2B2B2B"/>
<path d="M145.235 95.2896C147.885 95.0215 150.596 96.8702 151.317 99.4306C151.932 101.621 151.169 104.024 149.777 105.822C148.38 107.62 146.424 108.891 144.422 109.968C141.799 111.378 138.724 112.528 135.893 111.599C135.103 111.341 134.344 110.906 133.868 110.227C133.183 109.247 133.188 107.939 133.428 106.77C133.979 104.094 135.593 101.704 137.692 99.9575C139.792 98.2105 141.859 95.627 145.235 95.2896Z" fill="white"/>
<path d="M153.417 98.8436C152.7 96.2971 150.624 94.2959 148.154 93.4872C147.377 93.2283 146.568 93.0897 145.744 93.0897C145.61 93.0897 145.476 93.0897 145.337 93.1036C145.226 93.1036 145.125 93.1128 145.014 93.1267C143.492 93.2838 142.197 93.7783 141.069 94.4346C139.815 95.1509 138.775 96.0614 137.841 96.9118C137.725 97.0181 137.609 97.1198 137.498 97.2261C137.082 97.6097 136.685 97.9701 136.301 98.289C136.162 98.4 136.028 98.5201 135.894 98.6357C135.787 98.7327 135.686 98.8205 135.584 98.9222C133.369 100.993 131.861 103.595 131.292 106.335C130.876 108.373 131.149 110.153 132.078 111.479C132.777 112.473 133.854 113.231 135.209 113.674C135.292 113.702 135.376 113.725 135.459 113.748C135.602 113.795 135.746 113.832 135.889 113.864C136.62 114.044 137.346 114.123 138.063 114.123C138.271 114.123 138.479 114.114 138.687 114.1C139.506 114.053 140.296 113.91 141.064 113.702C142.724 113.263 144.228 112.547 145.439 111.891C145.874 111.655 146.332 111.405 146.808 111.114C147.548 110.675 148.32 110.167 149.07 109.57C149.93 108.891 150.767 108.096 151.488 107.163C153.449 104.644 154.162 101.529 153.408 98.8436H153.417ZM148.057 104.491C146.813 106.095 144.907 107.232 143.39 108.05C142.558 108.498 141.786 108.854 141.073 109.122C139.265 109.806 137.804 109.931 136.574 109.533C136.301 109.446 136.069 109.335 135.894 109.21C135.787 109.131 135.709 109.053 135.649 108.974C135.431 108.665 135.394 107.999 135.561 107.204C135.644 106.811 135.75 106.428 135.894 106.049C136.481 104.413 137.586 102.878 139.085 101.63C139.547 101.247 140 100.836 140.435 100.433C140.648 100.239 140.861 100.045 141.069 99.8558C142.405 98.6588 143.742 97.6328 145.448 97.4571C147.053 97.2954 148.778 98.4693 149.218 100.027C149.597 101.372 149.148 103.082 148.052 104.496L148.057 104.491Z" fill="#2B2B2B"/>
<path d="M146.568 111.082C148.94 111.322 150.966 113.457 151.109 115.874C151.23 117.94 150.106 119.946 148.538 121.3C146.975 122.65 145.014 123.431 143.053 124.032C140.486 124.813 137.573 125.284 135.27 123.948C134.627 123.574 134.044 123.047 133.757 122.359C133.341 121.36 133.6 120.196 134.035 119.193C135.024 116.905 136.897 115.066 139.071 113.887C141.245 112.709 143.548 110.777 146.573 111.086L146.568 111.082Z" fill="white"/>
<path d="M153.278 115.745C153.177 114.007 152.413 112.385 151.243 111.156C150.619 110.504 149.884 109.959 149.074 109.566C148.362 109.224 147.59 108.997 146.79 108.914C146.619 108.896 146.452 108.882 146.286 108.877C144.265 108.785 142.558 109.432 141.078 110.204C140.44 110.541 139.839 110.902 139.279 111.234C138.867 111.488 138.474 111.724 138.1 111.932C138.077 111.946 138.058 111.955 138.035 111.969C137.272 112.38 136.56 112.856 135.903 113.383C135.755 113.494 135.612 113.614 135.473 113.739C133.97 115.029 132.79 116.595 132.046 118.324C131.269 120.103 131.176 121.785 131.755 123.186C132.194 124.244 133.036 125.159 134.183 125.825C134.742 126.153 135.32 126.393 135.903 126.573C136.837 126.855 137.79 126.971 138.719 126.971C139.529 126.971 140.324 126.883 141.078 126.754C142.026 126.587 142.914 126.347 143.691 126.116C145.569 125.543 147.978 124.665 149.967 122.95C152.196 121.023 153.44 118.333 153.288 115.75L153.278 115.745ZM147.113 119.655C145.74 120.838 143.885 121.504 142.419 121.947C141.948 122.091 141.499 122.211 141.073 122.308C139.002 122.779 137.452 122.696 136.365 122.063C136.143 121.938 135.991 121.809 135.894 121.698C135.829 121.628 135.787 121.568 135.769 121.513C135.699 121.342 135.699 120.963 135.894 120.399C135.931 120.288 135.977 120.173 136.028 120.052C136.777 118.324 138.229 116.813 140.102 115.796C140.431 115.616 140.75 115.431 141.069 115.237C141.221 115.144 141.374 115.052 141.527 114.964C143.002 114.072 144.403 113.222 145.929 113.222C146.068 113.222 146.202 113.231 146.341 113.245C147.664 113.379 148.848 114.64 148.926 116.004C149 117.224 148.302 118.62 147.104 119.65L147.113 119.655Z" fill="#2B2B2B"/>
<path d="M206.367 215.498C206.367 215.498 197.58 203.214 197.567 187.981C197.562 182.13 194.426 172.129 190.8 165.164C188.224 160.21 182.485 149.206 180.478 145.351C178.929 142.375 175.085 136.26 169.702 138.969C166.049 140.808 164.203 143.627 165.975 147.02L170.377 155.468L163.838 142.925C162.141 139.667 158.626 138.617 155.092 140.392C150.375 142.768 150.583 147.436 151.744 149.672C151.744 149.672 156.517 158.578 156.549 158.893L150.458 147.209C149.034 144.478 144.895 141.82 140.885 143.364C139.007 144.085 134.609 147.482 136.764 151.618L142.994 163.292L123.32 126.666C121.586 123.324 117.345 122.035 113.849 123.791C110.352 125.543 108.923 129.675 110.657 133.016L138.582 186.789L123.431 179.736C119.944 178.114 115.694 179.561 113.936 182.967C112.179 186.373 113.58 190.449 117.063 192.071C117.063 192.071 133.962 199.041 142.851 208.27C148.28 213.904 158.445 217.449 160.42 218.438C170.622 223.54 173.481 233.62 173.481 233.62L206.367 215.494V215.498Z" fill="white"/>
<path d="M173.476 235.935C172.468 235.935 171.543 235.27 171.251 234.253C171.228 234.17 168.495 225.065 159.379 220.504C159.097 220.36 158.473 220.102 157.756 219.797C153.931 218.188 145.972 214.842 141.181 209.869C132.736 201.102 116.341 194.271 116.175 194.207C116.142 194.193 116.11 194.179 116.082 194.165C113.816 193.111 112.133 191.249 111.337 188.924C110.546 186.604 110.736 184.113 111.874 181.904C114.191 177.416 119.805 175.498 124.398 177.638L133.393 181.825L108.599 134.074C107.494 131.948 107.3 129.513 108.044 127.216C108.821 124.822 110.509 122.872 112.803 121.721C117.419 119.405 123.056 121.143 125.364 125.598L135.594 144.644C136.958 142.883 138.827 141.677 140.048 141.206C143.47 139.888 147.008 140.813 149.575 142.749C150.454 140.882 151.98 139.366 154.042 138.331C157.978 136.348 162.057 137.074 164.619 140.004C165.577 138.816 166.936 137.767 168.652 136.903C173.702 134.366 178.753 137.055 182.522 144.284L184.797 148.646C187.369 153.578 190.958 160.464 192.849 164.092C196.248 170.632 199.87 181.224 199.874 187.977C199.888 202.248 208.162 214.038 208.25 214.154C208.99 215.193 208.749 216.635 207.709 217.375C206.668 218.114 205.225 217.874 204.485 216.839C204.11 216.312 195.263 203.773 195.249 187.981C195.245 182.782 192.387 173.229 188.747 166.227C186.86 162.595 183.271 155.718 180.7 150.782L178.424 146.414C176.681 143.068 173.934 139.422 170.738 141.025C169.096 141.853 168.019 142.846 167.704 143.821C167.501 144.45 167.602 145.148 168.019 145.943L172.421 154.396C173.013 155.528 172.569 156.924 171.441 157.511C170.308 158.102 168.911 157.659 168.324 156.531L161.784 143.988C160.67 141.848 158.501 141.261 156.128 142.453C154.806 143.119 153.945 144.048 153.571 145.208C153.168 146.456 153.386 147.791 153.783 148.577L153.802 148.614C158.769 157.88 158.792 158.088 158.848 158.643C158.968 159.748 158.279 160.778 157.215 161.102C156.147 161.421 155.009 160.94 154.496 159.956L148.405 148.272C147.438 146.419 144.428 144.473 141.713 145.518C140.95 145.809 139.215 147.024 138.66 148.499C138.397 149.192 138.448 149.843 138.813 150.551L145.033 162.206C145.635 163.329 145.209 164.73 144.085 165.331C142.961 165.931 141.56 165.511 140.959 164.388L121.28 127.761C120.11 125.511 117.248 124.669 114.88 125.857C113.7 126.449 112.836 127.438 112.442 128.644C112.082 129.758 112.174 130.932 112.706 131.953L140.631 185.726C141.088 186.604 140.931 187.676 140.247 188.388C139.562 189.104 138.499 189.303 137.601 188.882L122.45 181.83C120.083 180.73 117.183 181.71 115.99 184.025C115.43 185.107 115.338 186.317 115.717 187.431C116.096 188.54 116.905 189.437 117.997 189.959C119.255 190.482 135.557 197.368 144.515 206.667C148.645 210.955 156.013 214.052 159.555 215.535C160.415 215.896 161.035 216.159 161.456 216.367C172.445 221.862 175.58 232.534 175.71 232.987C176.056 234.216 175.344 235.492 174.114 235.838C173.901 235.898 173.689 235.926 173.48 235.926L173.476 235.935Z" fill="#2B2B2B"/>
<path d="M88.0967 45.6288H127.185" stroke="black" stroke-width="6" stroke-miterlimit="10" stroke-linecap="round"/>
<path d="M88.0967 58.5879H127.185" stroke="black" stroke-width="6" stroke-miterlimit="10" stroke-linecap="round"/>
<path d="M88.0967 71.5516H127.185" stroke="black" stroke-width="6" stroke-miterlimit="10" stroke-linecap="round"/>
</g>
<path d="M196.271 3.19498L195.289 6.8595" stroke="black" stroke-width="2.83" stroke-linecap="round" stroke-linejoin="round"/>
<path d="M189.812 2.25861L189.813 6.05905" stroke="black" stroke-width="2.83" stroke-linecap="round" stroke-linejoin="round"/>
<path d="M183.334 3.03207L184.318 6.69684" stroke="black" stroke-width="2.83" stroke-linecap="round" stroke-linejoin="round"/>
<path d="M177.272 5.4501L179.172 8.74028" stroke="black" stroke-width="2.83" stroke-linecap="round" stroke-linejoin="round"/>
<path d="M172.047 9.35764L174.733 12.0432" stroke="black" stroke-width="2.83" stroke-linecap="round" stroke-linejoin="round"/>
<path d="M168.007 14.4829L171.298 16.3838" stroke="black" stroke-width="2.83" stroke-linecap="round" stroke-linejoin="round"/>
<path d="M165.436 20.4816L169.1 21.4635" stroke="black" stroke-width="2.83" stroke-linecap="round" stroke-linejoin="round"/>
<path d="M164.499 26.9395L168.3 26.9388" stroke="black" stroke-width="2.83" stroke-linecap="round" stroke-linejoin="round"/>
<path d="M165.272 33.4222L168.937 32.4382" stroke="black" stroke-width="2.83" stroke-linecap="round" stroke-linejoin="round"/>
<path d="M167.691 39.4799L170.98 37.5843" stroke="black" stroke-width="2.83" stroke-linecap="round" stroke-linejoin="round"/>
<path d="M171.598 44.709L174.283 42.0233" stroke="black" stroke-width="2.83" stroke-linecap="round" stroke-linejoin="round"/>
<path d="M176.724 48.7449L178.624 45.458" stroke="black" stroke-width="2.83" stroke-linecap="round" stroke-linejoin="round"/>
<path d="M182.721 51.3201L183.704 47.6516" stroke="black" stroke-width="2.83" stroke-linecap="round" stroke-linejoin="round"/>
<path d="M189.181 52.2525L189.179 48.456" stroke="black" stroke-width="2.83" stroke-linecap="round" stroke-linejoin="round"/>
<path d="M195.662 51.484L194.679 47.8153" stroke="black" stroke-width="2.83" stroke-linecap="round" stroke-linejoin="round"/>
<path d="M201.721 49.061L199.824 45.7758" stroke="black" stroke-width="2.83" stroke-linecap="round" stroke-linejoin="round"/>
<path d="M206.949 45.1545L204.264 42.4689" stroke="black" stroke-width="2.83" stroke-linecap="round" stroke-linejoin="round"/>
<path d="M210.985 40.0281L207.697 38.1323" stroke="black" stroke-width="2.83" stroke-linecap="round" stroke-linejoin="round"/>
<path d="M213.561 34.0306L209.893 33.0476" stroke="black" stroke-width="2.83" stroke-linecap="round" stroke-linejoin="round"/>
<path d="M214.493 27.5716L210.696 27.5734" stroke="black" stroke-width="2.83" stroke-linecap="round" stroke-linejoin="round"/>
<path d="M213.724 21.0939L210.055 22.0768" stroke="black" stroke-width="2.83" stroke-linecap="round" stroke-linejoin="round"/>
<path d="M211.302 15.0312L208.016 16.9318" stroke="black" stroke-width="2.83" stroke-linecap="round" stroke-linejoin="round"/>
<path d="M207.394 9.80603L204.708 12.4918" stroke="black" stroke-width="2.83" stroke-linecap="round" stroke-linejoin="round"/>
<path d="M202.269 5.76615L200.372 9.05813" stroke="black" stroke-width="2.83" stroke-linecap="round" stroke-linejoin="round"/>
<path d="M175.429 30.093L178.299 19.3807L180.466 19.9614L180.099 21.6803L179.705 21.4389C179.856 21.144 180.095 20.9023 180.418 20.7127C180.74 20.5231 181.124 20.4052 181.563 20.3529C182.001 20.3006 182.438 20.3368 182.873 20.4536C183.519 20.6266 184.048 20.9509 184.465 21.4235C184.878 21.895 185.15 22.4647 185.287 23.1256C185.419 23.7894 185.384 24.5061 185.178 25.2747C184.972 26.0433 184.647 26.6695 184.2 27.1823C183.752 27.6951 183.228 28.0514 182.631 28.2523C182.033 28.4532 181.405 28.4675 180.748 28.2913C180.32 28.1766 179.933 27.988 179.584 27.7205C179.236 27.453 178.969 27.1481 178.778 26.7996C178.587 26.4512 178.488 26.1063 178.492 25.7592L179.072 25.7023L177.73 30.7098L175.429 30.093ZM180.701 26.2152C181.042 26.3065 181.365 26.3039 181.667 26.2065C181.969 26.1092 182.229 25.9325 182.451 25.6735C182.672 25.4186 182.838 25.0851 182.948 24.6771C183.057 24.269 183.077 23.9092 183.015 23.5699C182.953 23.2306 182.816 22.9478 182.611 22.7145C182.403 22.4802 182.124 22.3163 181.771 22.2218C181.419 22.1273 181.092 22.1248 180.795 22.2193C180.494 22.3128 180.233 22.4934 180.01 22.7563C179.786 23.0231 179.62 23.3566 179.514 23.7528C179.408 24.1489 179.381 24.5325 179.445 24.8639C179.51 25.1953 179.645 25.4821 179.858 25.7175C180.071 25.9529 180.354 26.1178 180.702 26.2112L180.701 26.2152Z" fill="black"/>
<path d="M188.429 30.3496C187.792 30.1786 187.271 29.8565 186.862 29.386C186.453 28.9155 186.182 28.3419 186.044 27.668C185.91 26.9952 185.94 26.2814 186.141 25.5327C186.341 24.7839 186.676 24.122 187.131 23.6113C187.586 23.1006 188.111 22.7443 188.716 22.5456C189.321 22.3468 189.949 22.3325 190.607 22.5087C190.967 22.6053 191.286 22.746 191.555 22.9326C191.828 23.1163 192.05 23.3329 192.23 23.5807C192.41 23.8284 192.547 24.0944 192.645 24.3796C192.742 24.6647 192.791 24.9581 192.793 25.2516L192.337 25.0698L192.819 23.2712L195.085 23.8784L193.055 31.4531L190.745 30.8342L191.235 29.0079L191.754 29.13C191.608 29.3753 191.417 29.5959 191.179 29.7869C190.945 29.979 190.679 30.1327 190.385 30.2452C190.091 30.3616 189.775 30.4299 189.442 30.4512C189.11 30.4724 188.774 30.4419 188.429 30.3496ZM189.571 28.5919C189.924 28.6864 190.25 28.6889 190.547 28.5944C190.848 28.501 191.108 28.3243 191.331 28.0614C191.554 27.7985 191.72 27.465 191.83 27.057C191.939 26.6489 191.963 26.2733 191.9 25.938C191.837 25.6026 191.702 25.3158 191.489 25.0804C191.276 24.845 190.993 24.6801 190.644 24.5867C190.296 24.4933 189.984 24.499 189.686 24.5974C189.388 24.6959 189.131 24.8776 188.909 25.1365C188.686 25.3994 188.52 25.7329 188.411 26.1409C188.301 26.549 188.277 26.9246 188.34 27.2599C188.402 27.5992 188.539 27.8821 188.745 28.1114C188.955 28.3418 189.231 28.5006 189.571 28.5919Z" fill="black"/>
<path d="M194.973 35.4828L197.789 31.8809L197.504 33.057L195.984 24.1194L198.567 24.8115L199.143 29.0464C199.18 29.2599 199.204 29.4872 199.22 29.7252C199.237 29.9633 199.24 30.1892 199.223 30.3968L198.86 30.4992C198.954 30.3714 199.069 30.2112 199.198 30.0163C199.326 29.8215 199.467 29.613 199.617 29.3857L202.09 25.7512L204.685 26.4465L199.43 33.1571L197.24 36.086L194.974 35.4788L194.973 35.4828Z" fill="black"/>
</g>
<defs>
<clipPath id="clip0_13_2287">
<rect width="154.621" height="220.887" fill="white" transform="translate(54.0586 15.0487)"/>
</clipPath>
</defs>
</svg>
